P1
#Fichier PBM
2 5
0 0 
1 0 
0 0 
1 0 
0 0 
